<svg t="1717586767720" class="icon" viewBox="0 0 1024 1024" version="1.1" xmlns="http://www.w3.org/2000/svg" p-id="959" width="256" height="256"><path d="M509.99 426.24c-55.11-0.31-107.18-13.43-153.4-36.52a346.163 346.163 0 0 1-41.96-24.8 348.394 348.394 0 0 1-53.67-45.63c-26.94-28.04-49.22-60.56-65.62-96.35a344.44 344.44 0 0 1-17.94-48.45c-0.76-2.62-1.49-5.27-2.18-7.92 2.71-5.06 5.86-9.86 9.4-14.34 17.68-22.38 45.04-36.8 75.62-36.8 3.79 0 7.55 0.22 11.23 0.67 22.03 2.57 41.86 12.67 56.82 27.63a96.99 96.99 0 0 1 20.09 29.24 95.437 95.437 0 0 1 8.22 38.82v59.05c-0.01 85.15 68.48 154.32 153.39 155.4z" fill="#6F94F4" p-id="960"></path><path d="M356.59 582.43c-70.98-35.47-128.13-94.48-161.25-166.79a345.197 345.197 0 0 1-28.11-96.35v-0.02c-2.2-15.83-3.34-31.99-3.34-48.43v-59.06c0-16.31 4.1-31.72 11.34-45.22 0.68 2.65 1.42 5.3 2.18 7.92 4.8 16.7 10.8 32.88 17.94 48.45 16.4 35.79 38.68 68.32 65.62 96.35a348.394 348.394 0 0 0 53.67 45.63 344.87 344.87 0 0 0 41.96 24.8c46.21 23.09 98.28 36.2 153.4 36.52 0.67 0.01 1.34 0.01 2.01 0.01 26.49 0 50.59 10.84 68.04 28.3 17.47 17.47 28.31 41.55 28.31 68.06 0 26.49-10.84 50.58-28.31 68.04-17.46 17.47-41.55 28.31-68.04 28.31-55.85 0-108.61-13.15-155.39-36.52-0.01-0.02-0.01-0.04-0.02-0.06v0.06z" fill="#97B4FF" p-id="961"></path><path d="M846.6 464.1c8.8-30.6 13.51-62.92 13.51-96.35v192.71c0 126.67-67.65 237.53-168.79 298.42-52.37 31.55-113.72 49.69-179.32 49.69-26.49 0-50.59-10.84-68.06-28.31-17.46-17.47-28.3-41.55-28.3-68.04 0-53 43.35-96.35 96.35-96.35 55.85 0 108.64-13.15 155.41-36.53 86.27-43.11 152.11-120.98 179.2-215.24z" fill="#4770DC" p-id="962"></path><path d="M860.12 211.79v155.96c0 33.43-4.71 65.76-13.51 96.35-27.09 94.27-92.94 172.13-179.19 215.24-46.77 23.37-99.56 36.53-155.41 36.53 54.33 0 103.54-38.71 139.23-101.32 10.68-18.73 16.18-39.96 16.18-61.52V211.81c0-13.79 2.93-26.92 8.21-38.8 13.55-30.55 42.55-52.86 76.92-56.88 3.68-0.45 7.43-0.67 11.23-0.67 26.49 0 50.59 10.84 68.04 28.3a98.003 98.003 0 0 1 16.97 22.84c7.23 13.47 11.33 28.87 11.33 45.19z" fill="#6F94F4" p-id="963"></path></svg>
